<svg width="149" height="148" viewBox="0 0 149 148" fill="none" xmlns="http://www.w3.org/2000/svg">
<path d="M123.591 5.928L101.889 48.584C102.638 36.9845 99.6442 13.187 81.6838 10.7923C59.2333 7.79888 46.8854 37.3587 46.1371 41.8488C46.0365 42.4521 45.7734 43.4981 45.4131 44.9298C43.0919 54.155 36.7402 79.3981 43.8921 105.459C51.5035 133.193 69.0651 132.577 82.1556 132.117C84.2533 132.043 86.2361 131.973 88.0448 132.025C89.7074 114.686 91.794 93.3742 93.1458 79.6405H67.4651C58.4849 79.6405 57.7366 73.2795 57.7366 72.157C57.7366 71.0345 57.7366 70.2861 58.4849 71.4087C58.7843 74.4021 64.0976 76.1482 66.7168 76.6471H93.4406C93.668 74.3401 93.8674 72.3203 94.0316 70.6603H66.7168C63.3492 70.5356 56.4644 68.5649 55.8657 61.6801C55.1174 53.0741 60.3558 46.7131 63.3492 46.7131C66.3426 46.7131 68.5877 48.1566 68.5877 53.4482C68.5877 53.7207 68.589 53.9849 68.5904 54.2408C68.611 58.2012 68.6213 60.1607 63.3492 59.8092C61.8525 59.8092 61.1042 62.8026 62.6009 62.8026C77.8672 62.8026 107.876 64.0499 120.972 64.6735L108.999 78.8922L103.386 129.406L111.618 139.509H59.2333C52.3734 139.134 37.0072 133.671 30.4217 114.813C22.1899 91.2399 19.5706 74.0279 24.809 50.4548C30.0475 26.8818 44.2663 9.29558 58.4849 4.4313C72.7036 -0.432976 82.4321 -0.807151 93.6574 4.4313C104.883 9.66975 114.237 13.0373 123.591 5.928Z" fill="#7A2E21"/>
<path d="M124.34 13.0373L126.959 14.9082L108.25 52.3257L105.257 50.829L124.34 13.0373Z" fill="#7A2E21"/>
<path d="M125.088 71.0345L122.469 68.7894L113.115 79.2663L107.876 130.528L116.482 144.747C101.266 144.622 68.6625 144.373 61.4783 144.373C54.2942 144.073 51.6251 142.128 51.0014 141.379C50.8336 141.178 50.2531 140.631 50.2531 141.754C51.0014 144.747 57.2375 146.992 60.7298 146.992L119.85 147.74L120.598 146.244L110.121 130.154L115.36 81.8856L125.088 71.0345Z" fill="#7A2E21"/>
<path d="M81.3096 16.4049C90.2898 16.1056 95.7777 25.2604 97.3992 29.8752C97.1497 29.9999 96.5011 30.0249 95.9025 29.1269C75.3228 6.30218 58.9631 32.6558 57.3624 36.6104C51.0014 52.3257 50.2531 69.912 49.5047 88.6207C48.3062 118.585 60.9722 126.285 62.2267 127.153C62.4761 127.651 63.1247 127.834 62.2267 127.535C48.008 118.555 46.8854 98.7234 46.5113 88.6207C46.1371 78.518 46.8855 50.829 54.7432 35.1137C62.6009 19.3983 70.0844 16.7791 81.3096 16.4049Z" fill="#7A2E21"/>
</svg>
